<svg width="16" height="16" viewBox="0 0 16 16" fill="none" xmlns="http://www.w3.org/2000/svg">
<path fill-rule="evenodd" clip-rule="evenodd" d="M14.2881 3.4301C13.7667 2.71989 13.0088 2.24907 12.1704 2.11461C11.332 1.98015 10.477 2.19228 9.78148 2.70731L7.99784 4.0283L6.2142 2.70731C5.51723 2.19269 4.66086 1.98189 3.82181 2.11842C2.98276 2.25495 2.22508 2.7284 1.70513 3.44105C1.18518 4.1537 0.942651 5.05116 1.02759 5.94822C1.11252 6.84528 1.51844 7.67348 2.16157 8.2619L7.99784 13.5845L13.8331 8.26297C14.4792 7.67392 14.887 6.84322 14.9717 5.94331C15.0564 5.04339 14.8116 4.14338 14.2881 3.4301ZM9.20312 1.82558C10.1129 1.15167 11.2317 0.874896 12.3282 1.0525C13.4247 1.23011 14.415 1.84851 15.0943 2.77981C15.7736 3.71111 16.0899 4.88409 15.9779 6.05616C15.8658 7.22823 15.334 8.30975 14.4924 9.07704L7.99784 15L1.50333 9.07704C0.66342 8.3093 0.133105 7.22834 0.0218558 6.0573C-0.0893932 4.88627 0.226917 3.71457 0.905489 2.78409C1.58406 1.8536 2.57309 1.23536 3.66841 1.05699C4.76372 0.87863 5.8817 1.15376 6.79156 1.82558L7.99784 2.71805L9.20312 1.82666V1.82558Z" fill="#202020"/>
</svg>
