<svg width="95" height="25" viewBox="0 0 95 25" fill="none" xmlns="http://www.w3.org/2000/svg">
<path d="M50.035 1.73725L50.7685 0.206006H47.1468L47.8793 1.73512V23.2649L47.1468 24.7961H50.7675L50.035 23.267V1.73725ZM58.5714 0.206006V2.86816L60.0176 2.11422H60.9876V23.2649L60.2552 24.794H63.8748L63.1423 23.2659V2.11315H64.1113L65.5585 2.86709V0.206006H58.5714V0.206006ZM72.8926 0.206006V2.86816L74.3409 2.11422H75.3088V23.267L74.5774 24.7951H78.197L77.4645 23.2659V2.11209H78.4335L79.8807 2.86603V0.206006H72.8936H72.8926ZM23.3223 0.206006H19.6995L20.4237 1.71813V20.7748C20.4237 22.546 19.9006 23.0918 18.791 23.0918C17.7136 23.0918 17.1593 22.546 17.1593 20.7748V1.7245L17.8845 0.211315H14.2618L15.0005 1.7468V21.4915C15.0005 24.2153 16.9583 25 18.7535 25C20.6143 25 22.5732 24.2142 22.5732 21.4915V1.74043L23.3223 0.206006V0.206006ZM4.57402 18.6489V21.5298C4.57402 22.5863 4.21247 23.0982 3.36644 23.0982C2.52144 23.0982 2.15885 22.5863 2.15885 21.5298V3.47449C2.15885 2.41898 2.52144 1.90821 3.36748 1.90821C4.21143 1.90821 4.57402 2.41898 4.57402 3.47449V6.35645H7.46534L6.72871 4.81884V3.40759C6.72871 1.32948 5.61906 0.00530943 3.36644 0.00530943C1.11485 0.00424755 0 1.32842 0 3.40547V21.5924C0 23.6705 1.10964 24.9947 3.36331 24.9947C5.61698 24.9947 6.72558 23.6652 6.72558 21.5924V20.1865L7.46222 18.6499L4.57402 18.6489V18.6489ZM90.1342 8.37722C89.7717 7.72947 89.6508 6.94686 89.6508 6.16319V3.57431C89.6508 2.6218 89.88 1.90715 90.8907 1.90715C91.9034 1.90715 92.1326 2.6218 92.1326 3.57431V6.35433H95L94.2873 4.86769V3.43945C94.2873 1.19356 93.3069 0 90.8907 0C88.7047 0 87.4971 1.19356 87.4971 3.61041V6.57308C87.4971 7.83248 87.8233 8.65119 88.4109 9.70671L91.5783 15.4621C92.0347 16.3138 92.1972 16.9594 92.1972 17.8121V21.2505C92.1972 22.4101 91.7732 23.0918 90.8917 23.0918C89.9457 23.0918 89.5206 22.4101 89.5206 21.2515V18.6457H86.6292L87.3544 20.1716V21.3853C87.3544 23.8702 88.4964 24.9958 90.8792 24.9958C93.0339 24.9958 94.3405 23.7002 94.3405 21.3853V17.5031C94.3405 16.4497 94.0696 15.4143 93.5569 14.5064L90.1342 8.37722ZM36.4067 11.9876V11.9218C38.0738 11.8528 38.7573 11.1657 38.7573 9.26496V3.03169C38.7573 0.580852 37.4851 0.207068 35.4273 0.207068H30.6709L31.4076 1.74362V23.2585L30.672 24.7951H35.4231C37.5799 24.7951 38.851 24.417 38.851 21.9672V14.2718C38.8552 12.5674 37.9091 12.0567 36.4067 11.9887V11.9876ZM33.5696 2.11422H34.7782C35.8868 2.11422 36.6057 2.35208 36.6057 3.78138V9.29894C36.6057 10.7622 36.017 11.0702 35.0053 11.0702H33.5706V2.11422H33.5696ZM36.7099 21.2176C36.7099 22.649 35.992 22.8868 34.8813 22.8868H33.5696V12.9763H35.0074C36.0181 12.9763 36.7047 13.2842 36.7047 14.4767L36.7099 21.2176Z" fill="#202020"/>
</svg>
